<svg width="1752" height="60" viewBox="0 0 1752 60" fill="none" xmlns="http://www.w3.org/2000/svg">
<path d="M1.22217 2.67385L25.2576 30.3336L3.73634e-05 59.7866H29.0244L58.6746 30.3336L30.2465 2.67383L1.22217 2.67385Z" fill="url(#paint0_linear_370_198)"/>
<path d="M53.6582 2.60647L77.6937 30.2662L52.4361 59.7192H81.4604L111.111 30.2662L82.6825 2.60645L53.6582 2.60647Z" fill="url(#paint1_linear_370_198)"/>
<path d="M106.094 2.53908L130.13 30.1988L104.872 59.6518H133.896L163.547 30.1988L135.119 2.53906L106.094 2.53908Z" fill="url(#paint2_linear_370_198)"/>
<path d="M158.53 2.4717L182.566 30.1314L157.308 59.5844H186.332L215.983 30.1314L187.555 2.47168L158.53 2.4717Z" fill="url(#paint3_linear_370_198)"/>
<path d="M210.966 2.40432L235.002 30.0641L209.744 59.517H238.768L268.419 30.0641L239.991 2.4043L210.966 2.40432Z" fill="url(#paint4_linear_370_198)"/>
<path d="M263.402 2.33693L287.438 29.9967L262.18 59.4496H291.205L320.855 29.9967L292.427 2.33691L263.402 2.33693Z" fill="url(#paint5_linear_370_198)"/>
<path d="M315.838 2.26955L339.874 29.9293L314.616 59.3823H343.641L373.291 29.9293L344.863 2.26953L315.838 2.26955Z" fill="url(#paint6_linear_370_198)"/>
<path d="M368.274 2.20217L392.31 29.8619L367.052 59.3149H396.077L425.727 29.8619L397.299 2.20215L368.274 2.20217Z" fill="url(#paint7_linear_370_198)"/>
<path d="M420.71 2.13479L444.746 29.7945L419.488 59.2475H448.513L478.163 29.7945L449.735 2.13477L420.71 2.13479Z" fill="url(#paint8_linear_370_198)"/>
<path d="M473.146 2.0674L497.182 29.7271L471.924 59.1801H500.949L530.599 29.7271L502.171 2.06738L473.146 2.0674Z" fill="url(#paint9_linear_370_198)"/>
<path d="M525.583 2.00002L549.618 29.6598L524.36 59.1127H553.385L583.035 29.6598L554.607 2L525.583 2.00002Z" fill="url(#paint10_linear_370_198)"/>
<path d="M585.222 1.67385L609.258 29.3336L584 58.7866H613.024L642.675 29.3336L614.246 1.67383L585.222 1.67385Z" fill="url(#paint11_linear_370_198)"/>
<path d="M637.658 1.60647L661.694 29.2662L636.436 58.7192H665.46L695.111 29.2662L666.683 1.60645L637.658 1.60647Z" fill="url(#paint12_linear_370_198)"/>
<path d="M690.094 1.53908L714.13 29.1988L688.872 58.6518H717.896L747.547 29.1988L719.119 1.53906L690.094 1.53908Z" fill="url(#paint13_linear_370_198)"/>
<path d="M742.53 1.4717L766.566 29.1314L741.308 58.5844H770.332L799.983 29.1314L771.555 1.47168L742.53 1.4717Z" fill="url(#paint14_linear_370_198)"/>
<path d="M794.966 1.40432L819.002 29.0641L793.744 58.517H822.768L852.419 29.0641L823.991 1.4043L794.966 1.40432Z" fill="url(#paint15_linear_370_198)"/>
<path d="M847.402 1.33693L871.438 28.9967L846.18 58.4496H875.205L904.855 28.9967L876.427 1.33691L847.402 1.33693Z" fill="url(#paint16_linear_370_198)"/>
<path d="M899.838 1.26955L923.874 28.9293L898.616 58.3823H927.641L957.291 28.9293L928.863 1.26953L899.838 1.26955Z" fill="url(#paint17_linear_370_198)"/>
<path d="M952.274 1.20217L976.31 28.8619L951.052 58.3149H980.077L1009.73 28.8619L981.299 1.20215L952.274 1.20217Z" fill="url(#paint18_linear_370_198)"/>
<path d="M1004.71 1.13479L1028.75 28.7945L1003.49 58.2475H1032.51L1062.16 28.7945L1033.73 1.13477L1004.71 1.13479Z" fill="url(#paint19_linear_370_198)"/>
<path d="M1057.15 1.0674L1081.18 28.7271L1055.92 58.1801H1084.95L1114.6 28.7271L1086.17 1.06738L1057.15 1.0674Z" fill="url(#paint20_linear_370_198)"/>
<path d="M1109.58 1.00002L1133.62 28.6598L1108.36 58.1127H1137.38L1167.03 28.6598L1138.61 1L1109.58 1.00002Z" fill="url(#paint21_linear_370_198)"/>
<path d="M1169.22 0.673848L1193.26 28.3336L1168 57.7866H1197.02L1226.67 28.3336L1198.25 0.673828L1169.22 0.673848Z" fill="url(#paint22_linear_370_198)"/>
<path d="M1221.66 0.606465L1245.69 28.2662L1220.44 57.7192H1249.46L1279.11 28.2662L1250.68 0.606445L1221.66 0.606465Z" fill="url(#paint23_linear_370_198)"/>
<path d="M1274.09 0.539082L1298.13 28.1988L1272.87 57.6518H1301.9L1331.55 28.1988L1303.12 0.539062L1274.09 0.539082Z" fill="url(#paint24_linear_370_198)"/>
<path d="M1326.53 0.4717L1350.57 28.1314L1325.31 57.5844H1354.33L1383.98 28.1314L1355.55 0.47168L1326.53 0.4717Z" fill="url(#paint25_linear_370_198)"/>
<path d="M1378.97 0.404317L1403 28.0641L1377.74 57.517H1406.77L1436.42 28.0641L1407.99 0.404297L1378.97 0.404317Z" fill="url(#paint26_linear_370_198)"/>
<path d="M1431.4 0.336934L1455.44 27.9967L1430.18 57.4496H1459.2L1488.85 27.9967L1460.43 0.336914L1431.4 0.336934Z" fill="url(#paint27_linear_370_198)"/>
<path d="M1483.84 0.269551L1507.87 27.9293L1482.62 57.3823H1511.64L1541.29 27.9293L1512.86 0.269531L1483.84 0.269551Z" fill="url(#paint28_linear_370_198)"/>
<path d="M1536.27 0.202168L1560.31 27.8619L1535.05 57.3149H1564.08L1593.73 27.8619L1565.3 0.202148L1536.27 0.202168Z" fill="url(#paint29_linear_370_198)"/>
<path d="M1588.71 0.134786L1612.75 27.7945L1587.49 57.2475H1616.51L1646.16 27.7945L1617.73 0.134766L1588.71 0.134786Z" fill="url(#paint30_linear_370_198)"/>
<path d="M1641.15 0.0674028L1665.18 27.7271L1639.92 57.1801H1668.95L1698.6 27.7271L1670.17 0.0673828L1641.15 0.0674028Z" fill="url(#paint31_linear_370_198)"/>
<path d="M1693.58 1.99996e-05L1717.62 27.6598L1692.36 57.1127H1721.38L1751.03 27.6598L1722.61 0L1693.58 1.99996e-05Z" fill="url(#paint32_linear_370_198)"/>
<defs>
<linearGradient id="paint0_linear_370_198" x1="1.22217" y1="2.67383" x2="64.484" y2="11.0291" gradientUnits="userSpaceOnUse">
<stop stop-color="#14B7ED"/>
<stop offset="1" stop-color="#0554F2"/>
</linearGradient>
<linearGradient id="paint1_linear_370_198" x1="53.6582" y1="2.60645" x2="116.92" y2="10.9617" gradientUnits="userSpaceOnUse">
<stop stop-color="#14B7ED"/>
<stop offset="1" stop-color="#0554F2"/>
</linearGradient>
<linearGradient id="paint2_linear_370_198" x1="106.094" y1="2.53906" x2="169.356" y2="10.8944" gradientUnits="userSpaceOnUse">
<stop stop-color="#14B7ED"/>
<stop offset="1" stop-color="#0554F2"/>
</linearGradient>
<linearGradient id="paint3_linear_370_198" x1="158.53" y1="2.47168" x2="221.792" y2="10.827" gradientUnits="userSpaceOnUse">
<stop stop-color="#14B7ED"/>
<stop offset="1" stop-color="#0554F2"/>
</linearGradient>
<linearGradient id="paint4_linear_370_198" x1="210.966" y1="2.4043" x2="274.228" y2="10.7596" gradientUnits="userSpaceOnUse">
<stop stop-color="#14B7ED"/>
<stop offset="1" stop-color="#0554F2"/>
</linearGradient>
<linearGradient id="paint5_linear_370_198" x1="263.402" y1="2.33691" x2="326.664" y2="10.6922" gradientUnits="userSpaceOnUse">
<stop stop-color="#14B7ED"/>
<stop offset="1" stop-color="#0554F2"/>
</linearGradient>
<linearGradient id="paint6_linear_370_198" x1="315.838" y1="2.26953" x2="379.1" y2="10.6248" gradientUnits="userSpaceOnUse">
<stop stop-color="#14B7ED"/>
<stop offset="1" stop-color="#0554F2"/>
</linearGradient>
<linearGradient id="paint7_linear_370_198" x1="368.274" y1="2.20215" x2="431.536" y2="10.5574" gradientUnits="userSpaceOnUse">
<stop stop-color="#14B7ED"/>
<stop offset="1" stop-color="#0554F2"/>
</linearGradient>
<linearGradient id="paint8_linear_370_198" x1="420.71" y1="2.13477" x2="483.972" y2="10.4901" gradientUnits="userSpaceOnUse">
<stop stop-color="#14B7ED"/>
<stop offset="1" stop-color="#0554F2"/>
</linearGradient>
<linearGradient id="paint9_linear_370_198" x1="473.146" y1="2.06738" x2="536.408" y2="10.4227" gradientUnits="userSpaceOnUse">
<stop stop-color="#14B7ED"/>
<stop offset="1" stop-color="#0554F2"/>
</linearGradient>
<linearGradient id="paint10_linear_370_198" x1="525.583" y1="2" x2="588.844" y2="10.3553" gradientUnits="userSpaceOnUse">
<stop stop-color="#14B7ED"/>
<stop offset="1" stop-color="#0554F2"/>
</linearGradient>
<linearGradient id="paint11_linear_370_198" x1="585.222" y1="1.67383" x2="648.484" y2="10.0291" gradientUnits="userSpaceOnUse">
<stop stop-color="#14B7ED"/>
<stop offset="1" stop-color="#0554F2"/>
</linearGradient>
<linearGradient id="paint12_linear_370_198" x1="637.658" y1="1.60645" x2="700.92" y2="9.96175" gradientUnits="userSpaceOnUse">
<stop stop-color="#14B7ED"/>
<stop offset="1" stop-color="#0554F2"/>
</linearGradient>
<linearGradient id="paint13_linear_370_198" x1="690.094" y1="1.53906" x2="753.356" y2="9.89436" gradientUnits="userSpaceOnUse">
<stop stop-color="#14B7ED"/>
<stop offset="1" stop-color="#0554F2"/>
</linearGradient>
<linearGradient id="paint14_linear_370_198" x1="742.53" y1="1.47168" x2="805.792" y2="9.82698" gradientUnits="userSpaceOnUse">
<stop stop-color="#14B7ED"/>
<stop offset="1" stop-color="#0554F2"/>
</linearGradient>
<linearGradient id="paint15_linear_370_198" x1="794.966" y1="1.4043" x2="858.228" y2="9.7596" gradientUnits="userSpaceOnUse">
<stop stop-color="#14B7ED"/>
<stop offset="1" stop-color="#0554F2"/>
</linearGradient>
<linearGradient id="paint16_linear_370_198" x1="847.402" y1="1.33691" x2="910.664" y2="9.69221" gradientUnits="userSpaceOnUse">
<stop stop-color="#14B7ED"/>
<stop offset="1" stop-color="#0554F2"/>
</linearGradient>
<linearGradient id="paint17_linear_370_198" x1="899.838" y1="1.26953" x2="963.1" y2="9.62483" gradientUnits="userSpaceOnUse">
<stop stop-color="#14B7ED"/>
<stop offset="1" stop-color="#0554F2"/>
</linearGradient>
<linearGradient id="paint18_linear_370_198" x1="952.274" y1="1.20215" x2="1015.54" y2="9.55745" gradientUnits="userSpaceOnUse">
<stop stop-color="#14B7ED"/>
<stop offset="1" stop-color="#0554F2"/>
</linearGradient>
<linearGradient id="paint19_linear_370_198" x1="1004.71" y1="1.13477" x2="1067.97" y2="9.49007" gradientUnits="userSpaceOnUse">
<stop stop-color="#14B7ED"/>
<stop offset="1" stop-color="#0554F2"/>
</linearGradient>
<linearGradient id="paint20_linear_370_198" x1="1057.15" y1="1.06738" x2="1120.41" y2="9.42268" gradientUnits="userSpaceOnUse">
<stop stop-color="#14B7ED"/>
<stop offset="1" stop-color="#0554F2"/>
</linearGradient>
<linearGradient id="paint21_linear_370_198" x1="1109.58" y1="1" x2="1172.84" y2="9.3553" gradientUnits="userSpaceOnUse">
<stop stop-color="#14B7ED"/>
<stop offset="1" stop-color="#0554F2"/>
</linearGradient>
<linearGradient id="paint22_linear_370_198" x1="1169.22" y1="0.673828" x2="1232.48" y2="9.02913" gradientUnits="userSpaceOnUse">
<stop stop-color="#14B7ED"/>
<stop offset="1" stop-color="#0554F2"/>
</linearGradient>
<linearGradient id="paint23_linear_370_198" x1="1221.66" y1="0.606445" x2="1284.92" y2="8.96175" gradientUnits="userSpaceOnUse">
<stop stop-color="#14B7ED"/>
<stop offset="1" stop-color="#0554F2"/>
</linearGradient>
<linearGradient id="paint24_linear_370_198" x1="1274.09" y1="0.539062" x2="1337.36" y2="8.89436" gradientUnits="userSpaceOnUse">
<stop stop-color="#14B7ED"/>
<stop offset="1" stop-color="#0554F2"/>
</linearGradient>
<linearGradient id="paint25_linear_370_198" x1="1326.53" y1="0.47168" x2="1389.79" y2="8.82698" gradientUnits="userSpaceOnUse">
<stop stop-color="#14B7ED"/>
<stop offset="1" stop-color="#0554F2"/>
</linearGradient>
<linearGradient id="paint26_linear_370_198" x1="1378.97" y1="0.404297" x2="1442.23" y2="8.7596" gradientUnits="userSpaceOnUse">
<stop stop-color="#14B7ED"/>
<stop offset="1" stop-color="#0554F2"/>
</linearGradient>
<linearGradient id="paint27_linear_370_198" x1="1431.4" y1="0.336914" x2="1494.66" y2="8.69221" gradientUnits="userSpaceOnUse">
<stop stop-color="#14B7ED"/>
<stop offset="1" stop-color="#0554F2"/>
</linearGradient>
<linearGradient id="paint28_linear_370_198" x1="1483.84" y1="0.269531" x2="1547.1" y2="8.62483" gradientUnits="userSpaceOnUse">
<stop stop-color="#14B7ED"/>
<stop offset="1" stop-color="#0554F2"/>
</linearGradient>
<linearGradient id="paint29_linear_370_198" x1="1536.27" y1="0.202148" x2="1599.54" y2="8.55745" gradientUnits="userSpaceOnUse">
<stop stop-color="#14B7ED"/>
<stop offset="1" stop-color="#0554F2"/>
</linearGradient>
<linearGradient id="paint30_linear_370_198" x1="1588.71" y1="0.134766" x2="1651.97" y2="8.49007" gradientUnits="userSpaceOnUse">
<stop stop-color="#14B7ED"/>
<stop offset="1" stop-color="#0554F2"/>
</linearGradient>
<linearGradient id="paint31_linear_370_198" x1="1641.15" y1="0.0673828" x2="1704.41" y2="8.42268" gradientUnits="userSpaceOnUse">
<stop stop-color="#14B7ED"/>
<stop offset="1" stop-color="#0554F2"/>
</linearGradient>
<linearGradient id="paint32_linear_370_198" x1="1693.58" y1="0" x2="1756.84" y2="8.3553" gradientUnits="userSpaceOnUse">
<stop stop-color="#14B7ED"/>
<stop offset="1" stop-color="#0554F2"/>
</linearGradient>
</defs>
</svg>
